<svg xmlns="http://www.w3.org/2000/svg" viewBox="0 0 64 64" width="64" height="64">
  <defs>
    <linearGradient id="g" x1="0" y1="0" x2="1" y2="1">
      <stop offset="0" stop-color="#f6ecd8"/>
      <stop offset="0.5" stop-color="#d8af6a"/>
      <stop offset="1" stop-color="#a9783a"/>
    </linearGradient>
  </defs>
  <rect width="64" height="64" rx="15" fill="#0a0908"/>
  <rect x="3.5" y="3.5" width="57" height="57" rx="13" fill="none" stroke="url(#g)" stroke-width="1.6"/>
  <path d="M12 38 c0-2 1-3 3-3 l3 0 c2-5 5-9 8-9 l10 0 c4 0 7 3 9 7 l4 1 c2 1 3 2 3 4 l0 3 c0 1-1 2-2 2 l-2 0 a4 4 0 0 0 -8 0 l-13 0 a4 4 0 0 0 -8 0 l-2 0 c-1 0-2-1-2-2 z" fill="url(#g)"/>
  <path d="M26 29 l8 0 c2 0 4 1 5 3 l-13 0 z" fill="#0a0908" opacity="0.55"/>
  <circle cx="24" cy="44" r="4.4" fill="#0a0908"/><circle cx="24" cy="44" r="1.7" fill="url(#g)"/>
  <circle cx="43" cy="44" r="4.4" fill="#0a0908"/><circle cx="43" cy="44" r="1.7" fill="url(#g)"/>
</svg>
